<svg id="Layer_1" data-name="Layer 1" xmlns="http://www.w3.org/2000/svg" viewBox="0 0 412.84 364.52"><defs><style>.cls-1{fill:#fbe61e;}.cls-2{fill:#141414;}.cls-3{fill:#aad8aa;}.cls-4{fill:#46b54b;}.cls-5{fill:#90c939;}.cls-6{fill:#12a34c;}.cls-7{font-size:15px;font-family:MyriadPro-Regular, Myriad Pro;letter-spacing:0.38em;}.cls-10,.cls-7,.cls-9{stroke:#000;stroke-miterlimit:10;stroke-width:0.5px;}.cls-8{letter-spacing:0.3em;}.cls-9{font-size:55px;letter-spacing:0.13em;}.cls-10,.cls-9{font-family:Kh-SomborPreyKok, Kh SomborPreyKok​​ ;}.cls-10{font-size:50.11px;letter-spacing:0.13em;}</style></defs><path class="cls-1" d="M408,200c.63-2.57,2.29-3.6,28-13,3.3-1.21,7.6-2.71,12-1,.47.18,5.41,2.17,6,6s-3.63,7.29-7,10c-4.48,3.61-6.31,3.4-25,10-2.88,1-4.78,1.71-7,1C410.45,211.55,406.78,205,408,200Z" transform="translate(-49.21 -69.81)"/><path class="cls-1" d="M275,136c3.2-2.14-1.92-10-3-25-.71-9.85.88-15.09-1-29-.61-4.49-1.45-9-5-11-2.51-1.42-6.42-1.75-9,0-4.27,2.89-2.33,9.63,1,37,1.62,13.36,2.19,20.22,8,25C268.4,135,272.78,137.49,275,136Z" transform="translate(-49.21 -69.81)"/><path class="cls-1" d="M200,161c1.67-6.18-6.34-11.35-26-30-9.35-8.87-13.27-13.13-18-12-3.53.84-6.45,4.43-7,8-.23,1.49-.4,5.26,7,13,6.78,7.09,10,7.16,23,16,9.59,6.53,14.23,10.86,18,9A6.52,6.52,0,0,0,200,161Z" transform="translate(-49.21 -69.81)"/><path class="cls-1" d="M131.58,208.23c-7-.72-14.74-1.56-25-.65-5.78.52-9.5,1.33-11.3,4.27-1.59,2.58-1.63,6.65.4,9a7.92,7.92,0,0,0,4.86,2.33c7.25,1.43,10.88,2.14,14.9,2,10.65-.41,17.36,1.6,40,1.64,1.37,0,3.92,0,5.12-1.67,1.88-2.57-.4-8-3.27-11.24C153.91,210.2,150.23,210.15,131.58,208.23Z" transform="translate(-49.21 -69.81)"/><path class="cls-1" d="M356,151c4.93-.13,5.7-8.18,12-16,10.17-12.62,21.93-8.75,28-21,.58-1.17,4.28-8.64,1-13-2.7-3.59-8.61-3-9-3-6.1.65-8,5.47-17,15-9.88,10.44-13.36,10.72-18,19-2.29,4.09-5.65,10.28-3,15C351.08,148.92,353.42,151.07,356,151Z" transform="translate(-49.21 -69.81)"/><path class="cls-1" d="M407,272c.71-10.65,1.15-39.14-17-67-16.26-24.95-38.45-35.63-50-41a129.26,129.26,0,0,0-62-12c-11.75.8-37.52,2.92-62,22-26.15,20.38-34.2,47.17-37,57,0,0-7.35,25.8,0,60,1.13,5.24,2.85,11.36,8,16,5.61,5.05,11.82,5.23,24,7,20.59,3,18.09,4.67,31,6,17.72,1.83,31.4-.42,41-2C309.17,313.7,353.82,298.69,407,272Z" transform="translate(-49.21 -69.81)"/><path class="cls-2" d="M289.61,421.82,261.5,383.5S274,404,282.42,416.79A180.4,180.4,0,0,0,265,410c-12-4-33-4-33-4s-15-2-29,4a164.83,164.83,0,0,0-21.81,11.24l-4-44.9s.07,22.43.64,37.34L175,412c-5-3-11-4-21-6s-21,0-30,1-34,9-37,10c-1.91.64-8.87,3.79-13.68,6L103,382s-35.31,40.92-36.42,44.93c-.52,1.9.6,1.61,1.94.79v.51S105,414,138,413c29-.88,38.9,10.66,40.88,13.48h0c.49,1,.91,1,1.26.53,1.55-.87,16.6-9.18,29.86-12,14-3,26-2,31-1s20,3,31,7,16.57,6.09,16.57,6.09h1.26v-.35C292.55,428.28,289.61,421.82,289.61,421.82Z" transform="translate(-49.21 -69.81)"/><path class="cls-3" d="M457,264c.31-5.19.9-10.19-1-11a1.7,1.7,0,0,0-1.07,0h0l-.13,0-.22.07c-2.32.75-16,5.2-20.58,7.94-5,3-51.16,14.8-58.49,15.33A86.29,86.29,0,0,0,360,279a210.63,210.63,0,0,0-33,12c-14.52,6.64-39,19.89-53,23a97.86,97.86,0,0,1-14,2s-4.44.25-9,0c-18.85-1-173-38.54-195-47-1.11-.43-5.27-2.08-6-1a1.07,1.07,0,0,0,0,.88c1.23,3.86-2.26,53,0,53.12h2.41c1.38,0,94,.74,138.59,1,41.74.23,63.22.34,93,0,22.71-.26,41.64-.67,55-1,0,0,19.06,2.4,19,3,0,.21-2.33.14-2.72.13C339.74,324.74,139,335.43,139,336c0,.05,1.52,0,2,0,13.09,0,95.8-.1,316,1V282C457.14,276,456.64,270,457,264Z" transform="translate(-49.21 -69.81)"/><path class="cls-4" d="M290,194.1a.09.09,0,0,0,0-.1c-.3-.29-4.21,3.29-5,4s-10.63,9.63-19,15c-5.59,3.59-13.55,8.7-24,10a53.52,53.52,0,0,0-11,2,50.11,50.11,0,0,0-11,5,64.26,64.26,0,0,0-14,11,55.38,55.38,0,0,0-11,16,51,51,0,0,0-3,31c.1.46.5,1.7,1,3.11,1.11-2.67,3.36-7,8.25-13.63,4-5.45,6-8.17,9.19-11.2C222.2,255,238,250.88,238,251a5.66,5.66,0,0,1-.61.33c-18.88,10.3-31.06,26.15-31.06,26.15a91.62,91.62,0,0,0-11.64,20.36A163.46,163.46,0,0,0,186,334a8.1,8.1,0,0,0,0,2.83c0,.08,0,.15,0,.17-.34.24-4.42-5.65-8-9-5.62-5.25-10.31-4.68-14.64-6.93A.47.47,0,0,0,163,321c-1.34.31-.77,7.47,0,14h2c7.34,2.9,16,7.64,17,15a16.33,16.33,0,0,1,0,3c-.46,12.38-.69,18.58,0,21,1.25,4.37,5.81,8.71,14.92,17.38.24.23.82.77,1.08.62.54-.32-.8-3.5-1-4-2.1-5.18-3-19.91-3-31,0-11.5,0-24.63,4-40,1.22-4.68,5-18,5-18a81.31,81.31,0,0,0,11,1c5.15.11,17.24.27,30-5,17.44-7.2,26.72-20.64,31-27,7.34-10.93,10-20.72,12-28C293.76,215.23,289.76,195.28,290,194.1Z" transform="translate(-49.21 -69.81)"/><path class="cls-5" d="M170,174c1.57.28-5.19,20.1,3,43,1.67,4.66,4.5,7.57,7,15a79,79,0,0,1,4,21v24c.12,1.55.18,1.91,0,2-.7.34-14.59-17.34-20-42a105.33,105.33,0,0,1-1-38C164.84,185.14,168.81,173.79,170,174Z" transform="translate(-49.21 -69.81)"/><path class="cls-6" d="M163,307c-13.35-15.11-30-21.54-41-27-5.8-2.87-18.24-7.32-18-8,0-.15.74,0,1,0,7.65,1.23,9.22.29,17,2a101.61,101.61,0,0,1,26,10c5,3.33,12.15,7.15,19,15,3.43,3.93,9.46,10.86,12.3,21.13,2.93-8.49,1.25-16.11-.3-23.13a59.5,59.5,0,0,0-10-22c-2.9-4-9.43-12.73-21-18-6.29-2.86-12.19-3.58-24-5s-13.07-.31-21-2a62.48,62.48,0,0,1-21-8c-9.35-5.79-18.67-15.26-20.56-21.24-.07-.21-.23-.77-.44-.76-1.21,0-3.71,19.47-1,37,3.23,20.85,13.26,35.3,20,45,11.86,17.08,24.11,26.22,28,29,7.12,5.09,14.23,10.05,25,12,4.57.83,14.21,2.44,25-2,2.46-1,12.2-5,18.21-14.45A97.24,97.24,0,0,0,163,307Z" transform="translate(-49.21 -69.81)"/><text class="cls-7" transform="translate(264.86 341.38)">ASSOCI<tspan class="cls-8" x="80.34" y="0">A</tspan><tspan x="93.99" y="0">TION</tspan></text><text class="cls-9" transform="translate(3.82 310.1)">Kep</text><text class="cls-10" transform="translate(155.37 312.84)">GARDENS</text></svg>